<svg width="256" height="256" viewBox="0 0 256 256" fill="none" xmlns="http://www.w3.org/2000/svg">
    <rect x="40" y="30" width="176" height="196" rx="12" fill="#F8F9FA" stroke="#453A62"
        stroke-width="8" />

    <path d="M40 50H55M40 85H55M40 120H55M40 155H55M40 190H55" stroke="#453A62" stroke-width="6"
        stroke-linecap="round" />

    <rect x="70" y="60" width="120" height="40" rx="4" fill="#E9ECEF" stroke="#CED4DA"
        stroke-width="2" />
    <rect x="70" y="115" width="120" height="85" rx="4" fill="#E9ECEF" stroke="#CED4DA"
        stroke-width="2" />

    <g transform="translate(85, 135) scale(5.5)">
        <path fill="#453a62" d="M 0 12 L 4 6 L 0 0 L 3 0 L 7 6 L 3 12 Z" />
        <path fill="#5e5086" d="M 4 12 L 8 6 L 4 0 L 7 0 L 15 12 L 12 12 L 9.5 8.25 L 7 12 Z" />
        <path fill="#8f4e8b"
            d="M 13.66 8.5 L 12.333 6.5 L 17 6.5 L 17 8.5 Z M 11.666 5.5 L 10.333 3.5 L 17 3.5 L 17 5.5 Z" />
    </g>

    <circle cx="195" cy="115" r="18" fill="#5E5086" />
    <path d="M191 108L202 115L191 122V108Z" fill="white" />
</svg>